<svg xmlns="http://www.w3.org/2000/svg" width="70" height="70" viewBox="0 0 70 70">
  <path id="dribbble" d="M39,4A35,35,0,1,0,74,39,35.04,35.04,0,0,0,39,4Zm0,5.25a29.635,29.635,0,0,1,19.031,6.873A63.943,63.943,0,0,1,41.765,26.463,148.3,148.3,0,0,0,31.539,10.228,29.83,29.83,0,0,1,39,9.25ZM26.374,12.08A139,139,0,0,1,36.806,28.3,62.348,62.348,0,0,1,16.25,32c-2.043,0-4.058-.136-6.057-.332A29.688,29.688,0,0,1,26.374,12.08Zm35.379,7.752a29.621,29.621,0,0,1,6.983,18.884,46.112,46.112,0,0,0-21.116-.461c-1.055-2.443-2.209-4.817-3.4-7.184A69.4,69.4,0,0,0,61.754,19.832ZM39.311,33c1.109,2.19,2.227,4.364,3.216,6.621A48.779,48.779,0,0,0,16.7,58.667,29.61,29.61,0,0,1,9.25,39c0-.725.059-1.434.109-2.147a67.349,67.349,0,0,0,6.891.4A67.609,67.609,0,0,0,39.311,33Zm17.627,9.5a43.134,43.134,0,0,1,11.355,1.545A29.673,29.673,0,0,1,55.878,63.5,144.589,144.589,0,0,0,49.65,43.484,42.347,42.347,0,0,1,56.938,42.5ZM44.411,44.469A135.56,135.56,0,0,1,51.086,66.18a29.7,29.7,0,0,1-30.529-3.849A43.412,43.412,0,0,1,44.411,44.469Z" transform="translate(-4 -4)" fill="#5b5b5b"/>
</svg>
