<svg xmlns="http://www.w3.org/2000/svg" width="70" height="70" viewBox="0 0 70 70">
  <path id="github" d="M37,2A35,35,0,1,0,72,37,35,35,0,0,0,37,2Zm0,7A27.891,27.891,0,0,1,64.563,41.812a17.377,17.377,0,0,0-3.609-.438,25.468,25.468,0,0,0-3.61.328A12.779,12.779,0,0,0,58,37.766a12.884,12.884,0,0,0-4.265-9.078c.725-2.693,1.435-7.314-.437-9.187a11.423,11.423,0,0,0-8.75,4.156A22.741,22.741,0,0,0,39.188,23a23.675,23.675,0,0,0-6.89,1.094l.656-.547a11.371,11.371,0,0,0-8.75-4.266c-1.982,2-1.08,7.055-.328,9.625-2.68,2.557-4.375,5.578-4.375,8.86a12.874,12.874,0,0,0,.547,3.281c-.971-.11-4.471-.437-5.906-.437a25.215,25.215,0,0,0-4.813.656A27.489,27.489,0,0,1,9,37,28.036,28.036,0,0,1,37,9ZM14.141,41.485c1.381,0,5.578.492,6.125.547.068.191.137.369.219.547a35.624,35.624,0,0,0-6.344-.11,37.776,37.776,0,0,0-4.375.985c-.109-.437-.246-.861-.328-1.312A27.356,27.356,0,0,1,14.141,41.485Zm46.813.765a16.692,16.692,0,0,1,3.5.438c-.041.232-.164.424-.219.656a20.176,20.176,0,0,0-4.047-.547c-.82-.014-2.133.027-3.281.109a3.159,3.159,0,0,0,.11-.328A28.846,28.846,0,0,1,60.953,42.25Zm-44.625.985c1.969.014,3.814.15,4.594.219,1.832,3.418,5.537,5.947,11.266,7a11.169,11.169,0,0,0-3.609,3.172c-.82.068-1.682.11-2.516.11-2.434,0-3.951-2.174-5.25-4.047A4.937,4.937,0,0,0,16.984,47.5c-.916-.109-1.23.41-.766.766,2.666,2.051,3.623,4.484,4.7,6.672A5.7,5.7,0,0,0,26.172,58h.437a6.177,6.177,0,0,0-.109,1.094v3.828a27.974,27.974,0,0,1-16.516-18.7,40.219,40.219,0,0,1,4.266-.875A15.09,15.09,0,0,1,16.328,43.235Zm43.859.437a18.676,18.676,0,0,1,3.828.547A27.942,27.942,0,0,1,51,61.172V59.094c0-2.981-2.352-6.809-5.687-8.64,5.537-1.012,9.147-3.432,11.047-6.672C57.686,43.686,59.244,43.644,60.188,43.672ZM38.75,58a1.762,1.762,0,0,1,1.75,1.75v5.031A26.864,26.864,0,0,1,37,65V59.75A1.762,1.762,0,0,1,38.75,58Zm-7,3.5a1.762,1.762,0,0,1,1.75,1.75v1.531a29.855,29.855,0,0,1-3.5-.656V63.25A1.762,1.762,0,0,1,31.75,61.5Zm14,0a1.8,1.8,0,0,1,1.75,1.422,27.763,27.763,0,0,1-3.5,1.2V63.25A1.762,1.762,0,0,1,45.75,61.5Z" transform="translate(-2 -2)" fill="#5b5b5b"/>
</svg>
