<svg xmlns="http://www.w3.org/2000/svg" width="70" height="70" viewBox="0 0 70 70">
  <path id="linkedin" d="M12.955,5A8.01,8.01,0,0,0,5,12.955V67.045A8.01,8.01,0,0,0,12.955,75H67.045A8.01,8.01,0,0,0,75,67.045V12.955A8.01,8.01,0,0,0,67.045,5Zm0,6.364H67.045a1.555,1.555,0,0,1,1.591,1.591V67.045a1.555,1.555,0,0,1-1.591,1.591H12.955a1.556,1.556,0,0,1-1.591-1.591V12.955A1.556,1.556,0,0,1,12.955,11.364ZM22.3,16.832A5.469,5.469,0,1,0,27.77,22.3,5.469,5.469,0,0,0,22.3,16.832ZM51.037,31.35a9.813,9.813,0,0,0-8.85,4.872h-.2V32.045H33.04V62.273h9.347V47.358c0-3.94.783-7.756,5.668-7.756,4.81,0,4.872,4.449,4.872,7.955V62.273h9.347v-16.6C62.273,37.539,60.545,31.35,51.037,31.35Zm-33.31.7V62.273h9.446V32.045Z" transform="translate(-5 -5)" fill="#5b5b5b"/>
</svg>
